<?xml version="1.0" encoding="utf-8"?>
<!-- Generator: Adobe Illustrator 22.1.0, SVG Export Plug-In . SVG Version: 6.00 Build 0)  -->
<svg version="1.1" id="レイヤー_1" xmlns="http://www.w3.org/2000/svg" xmlns:xlink="http://www.w3.org/1999/xlink" x="0px"
	 y="0px" viewBox="0 0 600 174" style="enable-background:new 0 0 600 174;" xml:space="preserve">
<style type="text/css">
	.st0{fill:#757575;}
	.st1{fill:#9E9E9E;}
	.st2{fill:#5C5C5C;}
	.st3{fill-rule:evenodd;clip-rule:evenodd;fill:#00AED1;}
</style>
<g>
	<polygon class="st0" points="250.9,67.3 250.9,102.6 262.7,118.3 262.7,67.3 	"/>
	<polygon class="st1" points="224.3,67.3 224.3,87 250.9,122.3 262.7,122.3 262.7,118.3 	"/>
	<rect x="212.5" y="67.3" class="st2" width="11.8" height="55"/>
	<polygon class="st1" points="517.2,122.3 529,122.3 529,100.7 517.2,119.4 	"/>
	<polyline class="st0" points="550,67.3 517.2,119.4 517.2,100.7 516.3,99.3 536.5,67.3 	"/>
	<polyline class="st2" points="496.1,67.3 516.3,99.3 523.1,88.6 509.6,67.3 	"/>
	<polygon class="st1" points="162.7,110.5 166.8,100.7 181.6,100.7 186.5,110.5 	"/>
	<polygon class="st2" points="174.2,82.8 167.8,67.5 145,122.3 157.8,122.3 	"/>
	<polygon class="st0" points="180.5,67.3 167.9,67.3 167.8,67.5 190.6,122.3 203.4,122.3 	"/>
	<polygon class="st3" points="50,51.7 64.6,51.7 86.5,104.6 93.9,87 79.2,51.7 93.9,51.7 101.2,69.4 108.5,51.7 123.1,51.7 
		108.5,87 115.8,104.6 137.7,51.7 152.3,51.7 123.1,122.3 108.5,122.3 101.2,104.6 93.9,122.3 79.2,122.3 	"/>
	<rect x="393.4" y="79.1" class="st2" width="11.8" height="43.2"/>
	<path class="st0" d="M416.1,67.3h-22.7v11.8h22.7v0c8.7,0,15.7,7,15.7,15.7c0,8.7-7,15.7-15.7,15.7v0h-10.9v11.8h10.9
		c15.2,0,27.5-12.3,27.5-27.5C443.6,79.6,431.3,67.3,416.1,67.3z"/>
	<rect x="291.9" y="79.1" class="st2" width="11.8" height="43.2"/>
	<rect x="276" y="67.3" class="st0" width="43.4" height="11.8"/>
	<rect x="332.8" y="67.3" class="st0" width="43.4" height="11.8"/>
	<rect x="344.6" y="88.9" class="st1" width="28.7" height="11.8"/>
	<polygon class="st2" points="344.6,110.5 344.6,79.1 332.8,79.1 332.8,122.3 376.2,122.3 376.2,110.5 	"/>
	<rect x="456.9" y="110.5" class="st0" width="43.4" height="11.8"/>
	<rect x="456.9" y="67.3" class="st2" width="11.8" height="43.2"/>
</g>
</svg>
